<svg width="96" height="96" viewBox="0 0 96 96" fill="none" xmlns="http://www.w3.org/2000/svg">
  <rect width="96" height="96" rx="48" fill="#8A2BE2"/>
  <path d="M48 24C35.297 24 25 34.297 25 47C25 59.703 35.297 70 48 70C60.703 70 71 59.703 71 47C71 34.297 60.703 24 48 24ZM48 66C37.507 66 29 57.493 29 47C29 36.507 37.507 28 48 28C58.493 28 67 36.507 67 47C67 57.493 58.493 66 48 66Z" fill="white"/>
  <path d="M55 39H48C45.239 39 43 41.239 43 44V47C43 49.761 45.239 52 48 52H55C57.761 52 60 49.761 60 47V44C60 41.239 57.761 39 55 39ZM56 47C56 47.552 55.552 48 55 48H48C47.448 48 47 47.552 47 47V44C47 43.448 47.448 43 48 43H55C55.552 43 56 43.448 56 44V47Z" fill="white"/>
  <path d="M41 52H34C31.239 52 29 49.761 29 47V44C29 41.239 31.239 39 34 39H41C43.761 39 46 41.239 46 44V47H42V44C42 43.448 41.552 43 41 43H34C33.448 43 33 43.448 33 44V47C33 47.552 33.448 48 34 48H41C41.552 48 42 47.552 42 47V47H46V47C46 49.761 43.761 52 41 52Z" fill="white"/>
  <path d="M66 39H63V44H66V39Z" fill="white"/>
  <path d="M66 46H63V52H66V46Z" fill="white"/>
</svg> 